# Blender v2.79 (sub 0) OBJ File: 'boat.blend'
# www.blender.org
mtllib boat.mtl
o BezierCurve
v 0.957305 1.496945 3.229717
v 0.818424 1.498071 3.254193
v 0.646260 1.499082 3.276197
v 0.449710 1.499961 3.295329
v 0.237669 1.500689 3.311191
v 0.019034 1.501248 3.323382
v -0.197298 1.501619 3.331505
v -0.402432 1.501786 3.335159
v -0.587470 1.501728 3.333945
v -0.743517 1.501428 3.327465
v -0.861676 1.500867 3.315318
v -0.933050 1.500028 3.297107
v -0.980422 1.497728 3.247165
v -0.912432 1.495764 3.204474
v -0.752071 1.494139 3.169158
v -0.522333 1.492861 3.141335
v -0.246210 1.491933 3.121130
v 0.053305 1.491363 3.108662
v 0.353218 1.491153 3.104054
v 0.630537 1.491312 3.107428
v 0.862268 1.491843 3.118904
v 1.025419 1.492751 3.138605
v 1.096996 1.494043 3.166652
v 1.054006 1.495724 3.203167
v 0.957307 1.285170 3.239466
v 0.818426 1.286295 3.263943
v 0.646262 1.287306 3.285947
v 0.449712 1.288185 3.305079
v 0.237671 1.288913 3.320940
v 0.019036 1.289472 3.333132
v -0.197296 1.289844 3.341255
v -0.402429 1.290010 3.344909
v -0.587468 1.289952 3.343695
v -0.743515 1.289652 3.337215
v -0.861673 1.289092 3.325068
v -0.933048 1.288252 3.306857
v -0.980420 1.285953 3.256915
v -0.912430 1.283988 3.214225
v -0.752069 1.282364 3.178908
v -0.522331 1.281085 3.151085
v -0.246207 1.280158 3.130880
v 0.053307 1.279587 3.118412
v 0.353220 1.279378 3.113804
v 0.630539 1.279536 3.117178
v 0.862270 1.280067 3.128654
v 1.025421 1.280976 3.148355
v 1.096998 1.282268 3.176402
v 1.054008 1.283948 3.212917
v 0.957307 1.285170 3.239466
v 0.957305 1.496945 3.229717
v 0.818426 1.286295 3.263943
v 0.818424 1.498071 3.254193
v 0.646262 1.287306 3.285947
v 0.646260 1.499082 3.276197
v 0.449712 1.288185 3.305079
v 0.449710 1.499961 3.295329
v 0.237671 1.288913 3.320940
v 0.237669 1.500689 3.311191
v 0.019036 1.289472 3.333132
v 0.019034 1.501248 3.323382
v -0.197296 1.289844 3.341255
v -0.197298 1.501619 3.331505
v -0.402429 1.290010 3.344909
v -0.402432 1.501786 3.335159
v -0.587468 1.289952 3.343695
v -0.587470 1.501728 3.333945
v -0.743515 1.289652 3.337215
v -0.743517 1.501428 3.327465
v -0.861673 1.289092 3.325068
v -0.861676 1.500867 3.315318
v -0.933048 1.288252 3.306857
v -0.933050 1.500028 3.297107
v -0.980420 1.285953 3.256915
v -0.980422 1.497728 3.247165
v -0.912430 1.283988 3.214225
v -0.912432 1.495764 3.204474
v -0.752069 1.282364 3.178908
v -0.752071 1.494139 3.169158
v -0.522331 1.281085 3.151085
v -0.522333 1.492861 3.141335
v -0.246207 1.280158 3.130880
v -0.246210 1.491933 3.121130
v 0.053307 1.279587 3.118412
v 0.053305 1.491363 3.108662
v 0.353220 1.279378 3.113804
v 0.353218 1.491153 3.104054
v 0.630539 1.279536 3.117178
v 0.630537 1.491312 3.107428
v 0.862270 1.280067 3.128654
v 0.862268 1.491843 3.118904
v 1.025421 1.280976 3.148355
v 1.025419 1.492751 3.138605
v 1.096998 1.282268 3.176402
v 1.096996 1.494043 3.166652
v 1.054008 1.283948 3.212917
v 1.054006 1.495724 3.203167
vn -0.0000 0.9989 -0.0460
vn -0.0000 0.9989 -0.0459
vn 0.0000 -0.9989 0.0460
vn 0.2196 0.0449 0.9745
vn 0.1504 0.0454 0.9876
vn 0.1119 0.0457 0.9926
vn 0.0858 0.0458 0.9952
vn 0.0652 0.0459 0.9968
vn 0.0466 0.0459 0.9978
vn 0.0277 0.0460 0.9985
vn 0.0056 0.0460 0.9989
vn -0.0240 0.0460 0.9986
vn -0.0720 0.0459 0.9963
vn -0.1754 0.0453 0.9834
vn -0.5065 0.0396 0.8613
vn -0.9921 -0.0058 -0.1251
vn -0.3793 -0.0425 -0.9243
vn -0.1680 -0.0453 -0.9847
vn -0.0967 -0.0457 -0.9942
vn -0.0573 -0.0459 -0.9973
vn -0.0285 -0.0460 -0.9985
vn -0.0016 -0.0460 -0.9989
vn 0.0308 -0.0460 -0.9984
vn 0.0848 -0.0458 -0.9953
vn 0.2445 -0.0446 -0.9686
vn 0.9863 -0.0075 -0.1645
vn 0.4675 0.0407 0.8831
usemtl Tinted_Windows
s off
f 20//1 22//1 21//1
f 19//1 22//1 20//1
f 18//1 22//1 19//1
f 18//1 23//1 22//1
f 17//1 23//1 18//1
f 17//1 24//1 23//1
f 16//1 24//1 17//1
f 16//1 1//1 24//1
f 15//1 1//1 16//1
f 15//1 2//1 1//1
f 14//1 2//1 15//1
f 14//1 3//1 2//1
f 14//1 4//1 3//1
f 13//1 4//1 14//1
f 13//1 5//1 4//1
f 12//1 5//1 13//1
f 12//1 6//1 5//1
f 12//1 7//1 6//1
f 12//1 8//1 7//1
f 11//1 8//1 12//1
f 11//2 9//2 8//2
f 10//1 9//1 11//1
f 46//3 44//3 45//3
f 46//3 43//3 44//3
f 46//3 42//3 43//3
f 47//3 42//3 46//3
f 47//3 41//3 42//3
f 48//3 41//3 47//3
f 48//3 40//3 41//3
f 25//3 40//3 48//3
f 25//3 39//3 40//3
f 26//3 39//3 25//3
f 26//3 38//3 39//3
f 27//3 38//3 26//3
f 28//3 38//3 27//3
f 28//3 37//3 38//3
f 29//3 37//3 28//3
f 29//3 36//3 37//3
f 30//3 36//3 29//3
f 31//3 36//3 30//3
f 32//3 36//3 31//3
f 32//3 35//3 36//3
f 33//3 35//3 32//3
f 33//3 34//3 35//3
s 1
f 50//4 52//5 51//5 49//4
f 52//5 54//6 53//6 51//5
f 54//6 56//7 55//7 53//6
f 56//7 58//8 57//8 55//7
f 58//8 60//9 59//9 57//8
f 60//9 62//10 61//10 59//9
f 62//10 64//11 63//11 61//10
f 64//11 66//12 65//12 63//11
f 66//12 68//13 67//13 65//12
f 68//13 70//14 69//14 67//13
f 70//14 72//15 71//15 69//14
f 72//15 74//16 73//16 71//15
f 74//16 76//17 75//17 73//16
f 76//17 78//18 77//18 75//17
f 78//18 80//19 79//19 77//18
f 80//19 82//20 81//20 79//19
f 82//20 84//21 83//21 81//20
f 84//21 86//22 85//22 83//21
f 86//22 88//23 87//23 85//22
f 88//23 90//24 89//24 87//23
f 90//24 92//25 91//25 89//24
f 92//25 94//26 93//26 91//25
f 94//26 96//27 95//27 93//26
f 96//27 50//4 49//4 95//27
o Plane
v -0.279718 2.115322 0.368767
v -0.279718 1.727935 2.020118
v -1.543219 0.102409 2.540935
v -1.791921 0.102409 0.579673
v -0.279718 1.547155 2.743240
v -1.353556 0.076583 3.363059
v -0.279718 1.263071 3.401798
v -1.291893 0.451057 3.672969
v -0.279718 0.991900 3.853749
v -1.180478 0.570668 3.982878
v -0.279718 0.888597 4.073268
v -0.836602 0.683489 4.305700
v -0.279718 0.567273 4.370265
v -0.279718 0.489796 4.124920
v -1.766077 0.102409 -0.857958
v -0.279718 2.321928 -0.793394
v -1.649248 0.089496 -1.568167
v -0.279718 1.831238 -1.529429
v -1.430211 0.192799 -2.123422
v -0.279718 1.766674 -2.136335
v -1.310766 0.283189 -2.420418
v -0.279718 1.702109 -2.859456
v -0.955373 0.567273 -3.053149
v -0.279718 1.663371 -3.311407
v -0.626946 0.954660 -3.608404
v -0.279718 1.624632 -3.815010
v -0.279718 1.303308 -3.995791
v -0.279718 1.430938 -4.060355
v -1.746252 0.852084 2.421829
v -2.006584 1.030743 0.603495
v -1.459267 0.754795 3.077205
v -1.346928 0.825549 3.547907
v -1.124465 0.735276 3.923325
v -0.836602 0.778083 4.198504
v -1.789976 1.032333 -0.828182
v -1.613057 1.005355 -1.550302
v -1.449672 0.918653 -2.129377
v -1.258238 0.937580 -2.622898
v -0.801662 1.072781 -3.172255
v -0.465891 1.263644 -3.703689
v -0.279718 1.362170 -4.025567
v -0.783809 1.616248 0.499054
v -0.783809 1.640211 -0.806516
v -0.802014 1.460103 -1.500374
v -0.719530 1.446806 -2.133710
v -0.538039 1.413734 -2.770228
v -0.491300 1.440604 -3.258920
v -0.376397 1.488470 -3.773021
v -0.279718 1.404999 -4.047234
v -0.861551 1.375342 2.072606
v -0.870832 1.183918 2.869210
v -1.071544 1.098041 3.456909
v -1.071907 0.895103 3.879992
v -0.836602 0.846912 4.120506
v -1.513463 0.920396 2.329939
v -1.374886 0.884645 3.022476
v -1.274467 0.897249 3.523963
v -1.110635 0.777331 3.911923
v -0.836602 0.796194 4.177981
v -1.684838 1.113943 0.576013
v -1.525226 1.248381 -0.822481
v -1.352198 1.125012 -1.537164
v -1.257551 1.057625 -2.130517
v -1.068734 1.062869 -2.661664
v -0.719997 1.169566 -3.195059
v -0.442343 1.322802 -3.721932
v -0.279718 1.373439 -4.031268
v -1.234324 1.342282 0.537533
v -1.154518 1.394623 -0.814498
v -1.077106 1.292558 -1.518769
v -0.988541 1.252216 -2.132114
v -0.803386 1.238302 -2.715946
v -0.605649 1.305085 -3.226990
v -0.409370 1.405636 -3.747476
v -0.279718 1.389219 -4.039250
v -1.187507 1.136307 2.201272
v -1.256733 0.997092 2.945843
v -1.173006 0.997645 3.490436
v -1.091271 0.836217 3.895958
v -0.836602 0.821553 4.149243
v -0.000000 1.727935 2.020118
v 0.000000 0.102409 2.278376
v -0.000000 2.115322 0.368767
v 0.000000 0.102409 0.317115
v -0.000000 1.547155 2.743240
v 0.000000 0.076583 3.363059
v -0.000000 1.263071 3.401798
v 0.000000 0.451057 3.672969
v 0.000000 0.991900 3.853749
v 0.000000 0.515622 3.982878
v 0.000000 0.888597 4.073268
v 0.000000 0.683489 4.305700
v 0.000000 0.489796 4.124920
v 0.000000 0.567273 4.370265
v -0.000000 2.321928 -0.793394
v 0.000000 0.102409 -0.857958
v -0.000000 1.831238 -1.529429
v 0.000000 0.089496 -1.568167
v -0.000000 1.766674 -2.136335
v 0.000000 0.192799 -2.123422
v -0.000000 1.702109 -2.859456
v 0.000000 0.283189 -2.420418
v -0.000000 1.663371 -3.311407
v 0.000000 0.567273 -3.053149
v -0.000000 1.624632 -3.815010
v 0.000000 0.954660 -3.608404
v -0.000000 1.430938 -4.060355
v -0.000000 1.303308 -3.995791
v 0.279718 2.115322 0.368767
v 0.279718 1.727935 2.020118
v 1.543219 0.102409 2.540935
v 1.791921 0.102409 0.579673
v 0.279718 1.547155 2.743240
v 1.353556 0.076583 3.363059
v 0.279718 1.263071 3.401798
v 1.291893 0.451057 3.672969
v 0.279718 0.991900 3.853749
v 1.180478 0.570668 3.982878
v 0.279718 0.888597 4.073268
v 0.836602 0.683489 4.305700
v 0.279718 0.567273 4.370265
v 0.279718 0.489796 4.124920
v 1.766078 0.102409 -0.857958
v 0.279718 2.321928 -0.793394
v 1.649248 0.089496 -1.568167
v 0.279718 1.831238 -1.529429
v 1.430211 0.192799 -2.123422
v 0.279718 1.766674 -2.136335
v 1.310766 0.283190 -2.420418
v 0.279718 1.702109 -2.859456
v 0.955373 0.567273 -3.053149
v 0.279718 1.663371 -3.311407
v 0.626946 0.954660 -3.608404
v 0.279718 1.624632 -3.815010
v 0.279718 1.303308 -3.995791
v 0.279718 1.430938 -4.060355
v 0.000000 0.778083 4.198504
v -0.000000 1.362170 -4.025567
v 1.746252 0.852084 2.421829
v 2.006584 1.030743 0.603495
v 1.459267 0.754795 3.077205
v 1.346928 0.825549 3.547907
v 1.124465 0.735276 3.923325
v 0.836602 0.778083 4.198504
v 1.789976 1.032333 -0.828182
v 1.613057 1.005356 -1.550302
v 1.449672 0.918653 -2.129377
v 1.258238 0.937580 -2.622898
v 0.801662 1.072781 -3.172255
v 0.465891 1.263644 -3.703689
v 0.279718 1.362170 -4.025567
v -0.000000 1.404999 -4.047234
v 0.783809 1.616248 0.499054
v 0.783809 1.640211 -0.806516
v 0.802014 1.460103 -1.500374
v 0.719530 1.446806 -2.133710
v 0.538039 1.413734 -2.770228
v 0.491300 1.440605 -3.258920
v 0.376397 1.488470 -3.773021
v 0.279718 1.404999 -4.047234
v 0.000000 0.846912 4.120506
v 0.861551 1.375342 2.072606
v 0.870832 1.183918 2.869210
v 1.071544 1.098041 3.456909
v 1.071907 0.895104 3.879992
v 0.836602 0.846912 4.120506
v 0.000000 0.796194 4.177981
v 1.513463 0.920397 2.329939
v 1.374886 0.884645 3.022476
v 1.274467 0.897249 3.523963
v 1.110635 0.777331 3.911923
v 0.836602 0.796194 4.177981
v -0.000000 1.373440 -4.031268
v 1.684838 1.113944 0.576013
v 1.525226 1.248381 -0.822481
v 1.352198 1.125012 -1.537164
v 1.257551 1.057625 -2.130517
v 1.068734 1.062869 -2.661664
v 0.719997 1.169566 -3.195059
v 0.442343 1.322802 -3.721932
v 0.279718 1.373440 -4.031268
v -0.000000 1.389220 -4.039250
v 1.234324 1.342282 0.537533
v 1.154518 1.394623 -0.814498
v 1.077106 1.292558 -1.518769
v 0.988541 1.252216 -2.132114
v 0.803386 1.238302 -2.715946
v 0.605649 1.305085 -3.226990
v 0.409370 1.405636 -3.747476
v 0.279718 1.389220 -4.039250
v 0.000000 0.821553 4.149243
v 1.187507 1.136307 2.201272
v 1.256733 0.997092 2.945843
v 1.173006 0.997645 3.490436
v 1.091271 0.836217 3.895958
v 0.836602 0.821553 4.149243
vn 0.5964 -0.7904 -0.1396
vn 0.7561 -0.6516 -0.0609
vn -0.5964 -0.7904 -0.1396
vn -0.7561 -0.6516 -0.0609
vn 0.9651 0.2335 -0.1189
vn 0.4870 -0.8490 -0.2050
vn 0.3226 -0.9203 -0.2213
vn 0.1200 -0.8729 -0.4729
vn 0.0770 -0.9346 -0.3472
vn 0.9887 0.1245 0.0836
vn 0.9795 -0.0117 0.2012
vn 0.9476 -0.0120 0.3193
vn 0.9285 0.0336 0.3698
vn 0.8223 0.0115 0.5689
vn 0.8800 -0.2308 0.4150
vn 0.8389 -0.1945 0.5083
vn 0.0000 -0.9960 0.0889
vn -0.0000 -0.4856 -0.8742
vn 0.0000 -0.9701 -0.2425
vn 0.0000 -0.9963 0.0854
vn 0.0000 -0.9846 -0.1750
vn 0.0000 -0.9182 -0.3961
vn 0.0000 -0.9971 0.0767
vn 0.0000 -0.8575 -0.5145
vn 0.0000 -0.7849 0.6196
vn 0.0000 -0.7498 -0.6617
vn 0.0000 -0.9736 -0.2284
vn 0.0000 -0.9944 0.1058
vn 0.0000 -0.9048 -0.4258
vn 0.8803 -0.1402 0.4533
vn 0.8216 -0.4692 0.3237
vn 0.6425 -0.6951 0.3226
vn 0.5721 -0.7970 0.1935
vn 0.4796 -0.8501 0.2173
vn 0.5204 -0.8268 0.2133
vn 0.4549 -0.8903 0.0177
vn 0.6562 -0.5034 -0.5622
vn 0.8915 -0.1482 -0.4280
vn 0.9680 0.0520 -0.2454
vn 0.9476 0.1211 -0.2956
vn 0.2355 -0.9633 -0.1288
vn 0.5830 -0.8076 0.0895
vn 0.6608 -0.7372 0.1411
vn 0.7416 -0.6693 0.0453
vn 0.7666 -0.6371 0.0808
vn 0.8495 -0.3834 0.3626
vn 0.5915 -0.4798 -0.6480
vn 0.6925 -0.6329 -0.3463
vn 0.5055 -0.8627 -0.0128
vn 0.4718 -0.8667 -0.1619
vn 0.4395 -0.8697 -0.2246
vn 0.7625 -0.6372 -0.1122
vn 0.6185 -0.6194 -0.4835
vn 0.6385 -0.4701 -0.6093
vn 0.9044 -0.1693 0.3916
vn 0.8368 -0.5179 0.1774
vn 0.6429 -0.7612 0.0859
vn 0.5717 -0.7951 0.2024
vn 0.5483 -0.8289 0.1109
vn 0.5236 -0.8306 0.1898
vn 0.5344 -0.8452 -0.0082
vn 0.5311 -0.8400 -0.1109
vn 0.6188 -0.4745 -0.6261
vn -0.9651 0.2335 -0.1189
vn -0.4870 -0.8490 -0.2050
vn -0.3226 -0.9203 -0.2213
vn -0.1200 -0.8729 -0.4729
vn -0.0770 -0.9346 -0.3472
vn -0.9887 0.1245 0.0836
vn -0.9795 -0.0117 0.2012
vn -0.9476 -0.0120 0.3193
vn -0.9285 0.0336 0.3698
vn -0.8223 0.0115 0.5689
vn -0.8800 -0.2308 0.4150
vn -0.8389 -0.1945 0.5083
vn -0.8803 -0.1402 0.4533
vn -0.8216 -0.4692 0.3237
vn -0.6425 -0.6951 0.3226
vn -0.5721 -0.7970 0.1935
vn -0.4796 -0.8501 0.2173
vn -0.5204 -0.8268 0.2133
vn -0.4549 -0.8903 0.0177
vn -0.6562 -0.5034 -0.5622
vn -0.8915 -0.1482 -0.4280
vn -0.9680 0.0520 -0.2454
vn -0.9476 0.1211 -0.2956
vn -0.2355 -0.9633 -0.1288
vn -0.5830 -0.8076 0.0895
vn -0.6608 -0.7372 0.1411
vn -0.7416 -0.6693 0.0453
vn -0.7666 -0.6371 0.0808
vn -0.8495 -0.3834 0.3626
vn -0.5915 -0.4798 -0.6480
vn -0.6925 -0.6329 -0.3463
vn -0.5055 -0.8627 -0.0128
vn -0.4718 -0.8667 -0.1619
vn -0.4395 -0.8697 -0.2246
vn -0.7625 -0.6372 -0.1122
vn -0.6185 -0.6194 -0.4835
vn -0.6385 -0.4701 -0.6093
vn -0.9044 -0.1693 0.3916
vn -0.8368 -0.5179 0.1774
vn -0.6429 -0.7612 0.0859
vn -0.5717 -0.7951 0.2024
vn -0.5483 -0.8289 0.1109
vn -0.5236 -0.8306 0.1898
vn -0.5344 -0.8452 -0.0082
vn -0.5311 -0.8400 -0.1109
vn -0.6188 -0.4745 -0.6261
vn 0.1789 0.8952 -0.4081
vn -0.0000 1.0000 0.0000
vn -0.0000 0.9567 0.2912
vn -0.0000 0.9536 -0.3011
vn 0.0365 0.9681 0.2479
vn -0.0000 0.9123 0.4096
vn 0.0024 0.9996 0.0268
vn 0.0000 0.8201 0.5722
vn -0.0000 0.6376 -0.7704
vn -0.0000 0.9998 -0.0182
vn 0.0000 0.4514 0.8923
vn 0.0000 -0.8321 0.5547
vn 0.0000 0.7433 0.6690
vn 0.0213 0.9573 -0.2883
vn -0.0000 0.9831 0.1829
vn 0.6848 -0.6630 0.3023
vn -0.1789 0.8952 -0.4081
vn -0.0365 0.9681 0.2479
vn -0.0024 0.9996 0.0268
vn -0.0213 0.9573 -0.2883
vn -0.6848 -0.6630 0.3023
vn 0.4707 -0.8724 -0.1320
vn 0.4141 -0.9099 -0.0257
vn 0.4198 -0.8820 0.2142
vn 0.5439 -0.8245 0.1562
vn 0.5719 -0.7960 0.1980
vn 0.6475 -0.7304 0.2175
vn 0.8312 -0.4933 0.2566
vn 0.8920 -0.1538 0.4250
vn 0.5511 -0.8247 -0.1270
vn 0.6636 -0.7403 -0.1075
vn 0.6530 -0.6272 -0.4245
vn -0.4707 -0.8724 -0.1320
vn -0.4141 -0.9099 -0.0257
vn -0.4198 -0.8820 0.2142
vn -0.5439 -0.8245 0.1562
vn -0.5719 -0.7960 0.1980
vn -0.6475 -0.7304 0.2175
vn -0.8312 -0.4933 0.2566
vn -0.8920 -0.1538 0.4250
vn -0.5511 -0.8247 -0.1270
vn -0.6636 -0.7403 -0.1075
vn -0.6530 -0.6272 -0.4245
usemtl Windows
s off
f 98//28 146//28 138//28 97//28
f 97//29 138//29 139//29 112//29
f 206//30 205//30 249//30 258//30
f 205//31 220//31 250//31 249//31
usemtl Boat
f 125//32 99//32 100//32 126//32
f 146//33 98//33 101//33 147//33
f 147//34 101//34 103//34 148//34
f 148//35 103//35 105//35 149//35
f 149//36 105//36 107//36 150//36
f 126//37 100//37 111//37 131//37
f 131//38 111//38 113//38 132//38
f 132//39 113//39 115//39 133//39
f 133//40 115//40 117//40 134//40
f 134//41 117//41 119//41 135//41
f 135//42 119//42 121//42 136//42
f 136//43 121//43 123//43 137//43
f 197//44 195//44 116//44 118//44
f 188//45 190//45 109//45 108//45
f 177//46 181//46 101//46 98//46
f 199//47 197//47 118//47 120//47
f 191//48 179//48 97//48 112//48
f 181//49 183//49 103//49 101//49
f 201//50 199//50 120//50 122//50
f 183//51 185//51 105//51 103//51
f 203//52 201//52 122//52 124//52
f 233//53 188//53 108//53 130//53
f 179//54 177//54 98//54 97//54
f 195//55 193//55 114//55 116//55
f 185//56 187//56 107//56 105//56
f 263//53 233//53 130//53 155//53
f 162//57 136//57 137//57 163//57
f 161//58 135//58 136//58 162//58
f 160//59 134//59 135//59 161//59
f 159//60 133//60 134//60 160//60
f 158//61 132//61 133//61 159//61
f 157//62 131//62 132//62 158//62
f 156//63 126//63 131//63 157//63
f 106//64 129//64 130//64 108//64
f 104//65 128//65 129//65 106//65
f 102//66 127//66 128//66 104//66
f 99//67 125//67 127//67 102//67
f 151//68 125//68 126//68 156//68
f 114//69 140//69 141//69 116//69
f 116//70 141//70 142//70 118//70
f 118//71 142//71 143//71 120//71
f 120//72 143//72 144//72 122//72
f 122//73 144//73 145//73 124//73
f 187//53 257//53 150//53 107//53
f 175//74 149//74 150//74 176//74
f 174//75 148//75 149//75 175//75
f 173//76 147//76 148//76 174//76
f 172//77 146//77 147//77 173//77
f 125//78 151//78 152//78 127//78
f 127//79 152//79 153//79 128//79
f 128//80 153//80 154//80 129//80
f 129//81 154//81 155//81 130//81
f 287//53 263//53 155//53 176//53
f 257//53 287//53 176//53 150//53
f 144//82 170//82 171//82 145//82
f 143//83 169//83 170//83 144//83
f 142//84 168//84 169//84 143//84
f 141//85 167//85 168//85 142//85
f 140//86 166//86 167//86 141//86
f 139//87 165//87 166//87 140//87
f 138//88 164//88 165//88 139//88
f 146//89 172//89 164//89 138//89
f 154//90 175//90 176//90 155//90
f 235//91 236//91 208//91 207//91
f 258//92 259//92 209//92 206//92
f 259//93 260//93 211//93 209//93
f 260//94 261//94 213//94 211//94
f 261//95 262//95 215//95 213//95
f 236//96 241//96 219//96 208//96
f 241//97 242//97 221//97 219//97
f 242//98 243//98 223//98 221//98
f 243//99 244//99 225//99 223//99
f 244//100 245//100 227//100 225//100
f 245//101 246//101 229//101 227//101
f 246//102 247//102 231//102 229//102
f 197//44 226//44 224//44 195//44
f 188//45 216//45 217//45 190//45
f 177//46 206//46 209//46 181//46
f 199//47 228//47 226//47 197//47
f 191//48 220//48 205//48 179//48
f 181//49 209//49 211//49 183//49
f 201//50 230//50 228//50 199//50
f 183//51 211//51 213//51 185//51
f 203//52 232//52 230//52 201//52
f 233//53 240//53 216//53 188//53
f 179//54 205//54 206//54 177//54
f 195//55 224//55 222//55 193//55
f 185//56 213//56 215//56 187//56
f 263//53 268//53 240//53 233//53
f 276//103 277//103 247//103 246//103
f 275//104 276//104 246//104 245//104
f 274//105 275//105 245//105 244//105
f 273//106 274//106 244//106 243//106
f 272//107 273//107 243//107 242//107
f 271//108 272//108 242//108 241//108
f 270//109 271//109 241//109 236//109
f 214//110 216//110 240//110 239//110
f 212//111 214//111 239//111 238//111
f 210//112 212//112 238//112 237//112
f 207//113 210//113 237//113 235//113
f 264//114 270//114 236//114 235//114
f 222//115 224//115 252//115 251//115
f 224//116 226//116 253//116 252//116
f 226//117 228//117 254//117 253//117
f 228//118 230//118 255//118 254//118
f 230//119 232//119 256//119 255//119
f 187//53 215//53 262//53 257//53
f 291//120 292//120 262//120 261//120
f 290//121 291//121 261//121 260//121
f 289//122 290//122 260//122 259//122
f 288//123 289//123 259//123 258//123
f 235//124 237//124 265//124 264//124
f 237//125 238//125 266//125 265//125
f 238//126 239//126 267//126 266//126
f 239//127 240//127 268//127 267//127
f 287//53 292//53 268//53 263//53
f 257//53 262//53 292//53 287//53
f 255//128 256//128 286//128 285//128
f 254//129 255//129 285//129 284//129
f 253//130 254//130 284//130 283//130
f 252//131 253//131 283//131 282//131
f 251//132 252//132 282//132 281//132
f 250//133 251//133 281//133 280//133
f 249//134 250//134 280//134 279//134
f 258//135 249//135 279//135 288//135
f 267//136 268//136 292//136 291//136
usemtl Tinted_Windows
f 106//137 108//137 109//137 110//137
f 178//138 180//138 100//138 99//138
f 196//139 198//139 117//139 115//139
f 190//140 189//140 110//140 109//140
f 189//141 186//141 106//141 110//141
f 198//142 200//142 119//142 117//142
f 182//143 178//143 99//143 102//143
f 180//138 192//138 111//138 100//138
f 200//144 202//144 121//144 119//144
f 184//145 182//145 102//145 104//145
f 192//146 194//146 113//146 111//146
f 248//147 203//147 124//147 145//147
f 193//148 191//148 112//148 114//148
f 202//149 204//149 123//149 121//149
f 186//150 184//150 104//150 106//150
f 194//151 196//151 115//151 113//151
f 204//147 234//147 137//147 123//147
f 112//152 139//152 140//152 114//152
f 278//147 248//147 145//147 171//147
f 234//147 269//147 163//147 137//147
f 269//147 278//147 171//147 163//147
f 214//153 218//153 217//153 216//153
f 178//138 207//138 208//138 180//138
f 196//139 223//139 225//139 198//139
f 190//140 217//140 218//140 189//140
f 189//154 218//154 214//154 186//154
f 198//142 225//142 227//142 200//142
f 182//155 210//155 207//155 178//155
f 180//138 208//138 219//138 192//138
f 200//144 227//144 229//144 202//144
f 184//145 212//145 210//145 182//145
f 192//146 219//146 221//146 194//146
f 248//147 256//147 232//147 203//147
f 193//148 222//148 220//148 191//148
f 202//149 229//149 231//149 204//149
f 186//156 214//156 212//156 184//156
f 194//151 221//151 223//151 196//151
f 204//147 231//147 247//147 234//147
f 220//157 222//157 251//157 250//157
f 278//147 286//147 256//147 248//147
f 234//147 247//147 277//147 269//147
f 269//147 277//147 286//147 278//147
usemtl Red
f 172//158 151//158 156//158 164//158
f 164//159 156//159 157//159 165//159
f 165//160 157//160 158//160 166//160
f 166//161 158//161 159//161 167//161
f 167//162 159//162 160//162 168//162
f 168//163 160//163 161//163 169//163
f 169//164 161//164 162//164 170//164
f 170//165 162//165 163//165 171//165
f 151//166 172//166 173//166 152//166
f 152//167 173//167 174//167 153//167
f 153//168 174//168 175//168 154//168
f 288//169 279//169 270//169 264//169
f 279//170 280//170 271//170 270//170
f 280//171 281//171 272//171 271//171
f 281//172 282//172 273//172 272//172
f 282//173 283//173 274//173 273//173
f 283//174 284//174 275//174 274//174
f 284//175 285//175 276//175 275//175
f 285//176 286//176 277//176 276//176
f 264//177 265//177 289//177 288//177
f 265//178 266//178 290//178 289//178
f 266//179 267//179 291//179 290//179
