# Blender v2.79 (sub 0) OBJ File: 'geeksphone_firefoxos.blend'
# www.blender.org
mtllib geeksphone_firefoxos.mtl
o Cube_Cube.003
v -1.167088 1.503429 2.850490
v -1.397063 1.503429 2.401731
v -1.255096 1.503429 2.816330
v -1.329705 1.503429 2.719051
v -1.379557 1.503429 2.573463
v -1.397063 1.686528 2.401731
v -1.167088 1.686528 2.850490
v -1.379557 1.686528 2.573463
v -1.329705 1.686528 2.719051
v -1.255096 1.686528 2.816330
v -1.397063 1.503429 -2.310923
v -1.125786 1.503429 -2.840276
v -1.376413 1.503429 -2.513498
v -1.317608 1.503429 -2.685232
v -1.229599 1.503429 -2.799981
v -1.125786 1.686528 -2.840276
v -1.397063 1.686528 -2.310923
v -1.229599 1.686528 -2.799981
v -1.317608 1.686528 -2.685232
v -1.376413 1.686528 -2.513498
v 1.252865 1.503429 -2.840276
v 1.519275 1.503429 -2.320420
v 1.354816 1.503429 -2.800704
v 1.441245 1.503429 -2.688014
v 1.498996 1.503429 -2.519361
v 1.519275 1.686528 -2.320420
v 1.252865 1.686528 -2.840276
v 1.498996 1.686528 -2.519361
v 1.441245 1.686528 -2.688014
v 1.354816 1.686528 -2.800704
v 1.519275 1.503429 2.440733
v 1.309288 1.503429 2.850490
v 1.503291 1.503429 2.597540
v 1.457771 1.503429 2.730475
v 1.389647 1.503429 2.819299
v 1.309288 1.686528 2.850490
v 1.519275 1.686528 2.440733
v 1.389647 1.686528 2.819299
v 1.457771 1.686528 2.730475
v 1.503291 1.686528 2.597540
vt 0.318045 0.859789
vt 0.315944 0.891029
vt 0.309962 0.917512
vt 0.301009 0.935208
vt 0.290449 0.941422
vt 0.048481 0.941415
vt 0.038110 0.935312
vt 0.029318 0.917934
vt 0.023444 0.891926
vt 0.021381 0.861244
vt 0.021383 0.127010
vt 0.022884 0.103557
vt 0.027304 0.083589
vt 0.033971 0.070144
vt 0.041870 0.065271
vt 0.285732 0.058578
vt 0.303606 0.069096
vt 0.311195 0.084098
vt 0.316267 0.106550
vt 0.318047 0.133033
vt 0.653671 0.856828
vt 0.651647 0.887389
vt 0.645883 0.913297
vt 0.637256 0.930608
vt 0.627080 0.936687
vt 0.389660 0.936686
vt 0.379299 0.930496
vt 0.370514 0.912869
vt 0.364645 0.886488
vt 0.362584 0.855369
vt 0.362584 0.131427
vt 0.364331 0.105044
vt 0.369308 0.082677
vt 0.376755 0.067734
vt 0.385731 0.055474
vt 0.632895 0.061944
vt 0.640902 0.066946
vt 0.647662 0.080768
vt 0.652146 0.101307
vt 0.653671 0.125436
vt 0.273814 0.614408
vt 0.273814 0.711518
vt 0.191353 0.711518
vt 0.191353 0.614408
vt 0.231991 0.305392
vt 0.231991 0.447694
vt 0.227612 0.447694
vt 0.227612 0.305392
vt 0.229019 0.273266
vt 0.229019 0.430438
vt 0.224183 0.430438
vt 0.224183 0.273266
vt 0.251756 0.287017
vt 0.251756 0.466070
vt 0.246247 0.466070
vt 0.246247 0.287017
vt 0.235055 0.304860
vt 0.235055 0.438350
vt 0.230948 0.438350
vt 0.230948 0.304860
vt 0.104792 0.448611
vt 0.104791 0.284723
vt 0.110740 0.284723
vt 0.110740 0.448611
vt 0.090985 0.436838
vt 0.090985 0.217483
vt 0.098946 0.217483
vt 0.098946 0.436838
vt 0.085746 0.419666
vt 0.085746 0.264285
vt 0.091385 0.264285
vt 0.091385 0.419666
vt 0.062670 0.591382
vt 0.062670 0.398741
vt 0.069662 0.398741
vt 0.069662 0.591382
vt 0.241256 0.614119
vt 0.241256 0.692054
vt 0.199435 0.692054
vt 0.199435 0.614119
vt 0.213297 0.434424
vt 0.213297 0.269279
vt 0.219183 0.269279
vt 0.219183 0.434424
vt 0.187710 0.399475
vt 0.187710 0.235093
vt 0.193569 0.235093
vt 0.193569 0.399475
vt 0.157918 0.267506
vt 0.157918 0.406568
vt 0.152961 0.406568
vt 0.152961 0.267506
vt 0.094684 0.435465
vt 0.094684 0.258362
vt 0.100996 0.258362
vt 0.100996 0.435465
vt 0.240431 0.622047
vt 0.240431 0.713755
vt 0.165632 0.713755
vt 0.165632 0.622047
vt 0.236132 0.445305
vt 0.236132 0.307782
vt 0.239995 0.307782
vt 0.239995 0.445305
vt 0.245533 0.447445
vt 0.245533 0.295765
vt 0.249794 0.295765
vt 0.249794 0.447445
vt 0.210552 0.439657
vt 0.210552 0.303553
vt 0.214375 0.303553
vt 0.214375 0.439657
vt 0.207817 0.413210
vt 0.207817 0.310247
vt 0.210710 0.310247
vt 0.210710 0.413210
vt 0.256907 0.617177
vt 0.256907 0.728501
vt 0.163769 0.728501
vt 0.163769 0.617177
vn 0.0000 -1.0000 -0.0000
vn 0.0000 1.0000 0.0000
vn 0.0000 0.0000 1.0000
vn -0.3618 0.0000 0.9322
vn -0.7935 0.0000 0.6086
vn -0.9461 0.0000 0.3240
vn -0.9948 0.0000 0.1014
vn -0.3618 0.0000 -0.9322
vn -0.7935 0.0000 -0.6086
vn -0.9461 0.0000 -0.3240
vn -0.9948 0.0000 -0.1014
vn -1.0000 0.0000 0.0000
vn 0.9948 0.0000 -0.1014
vn 0.9461 0.0000 -0.3240
vn 0.7935 0.0000 -0.6086
vn 0.3618 0.0000 -0.9322
vn 0.0000 0.0000 -1.0000
vn 0.3618 0.0000 0.9322
vn 0.7935 0.0000 0.6086
vn 0.9461 0.0000 0.3240
vn 0.9948 0.0000 0.1014
vn 1.0000 0.0000 0.0000
usemtl Material.002
s off
f 11/1/1 13/2/1 14/3/1 15/4/1 12/5/1 21/6/1 23/7/1 24/8/1 25/9/1 22/10/1 31/11/1 33/12/1 34/13/1 35/14/1 32/15/1 1/16/1 3/17/1 4/18/1 5/19/1 2/20/1
f 26/21/2 28/22/2 29/23/2 30/24/2 27/25/2 16/26/2 18/27/2 19/28/2 20/29/2 17/30/2 6/31/2 8/32/2 9/33/2 10/34/2 7/35/2 36/36/2 38/37/2 39/38/2 40/39/2 37/40/2
f 32/41/3 36/42/3 7/43/3 1/44/3
f 1/45/4 7/46/4 10/47/4 3/48/4
f 3/49/5 10/50/5 9/51/5 4/52/5
f 4/53/6 9/54/6 8/55/6 5/56/6
f 5/57/7 8/58/7 6/59/7 2/60/7
f 16/61/8 12/62/8 15/63/8 18/64/8
f 18/65/9 15/66/9 14/67/9 19/68/9
f 19/69/10 14/70/10 13/71/10 20/72/10
f 20/73/11 13/74/11 11/75/11 17/76/11
f 2/77/12 6/78/12 17/79/12 11/80/12
f 26/81/13 22/82/13 25/83/13 28/84/13
f 28/85/14 25/86/14 24/87/14 29/88/14
f 29/89/15 24/90/15 23/91/15 30/92/15
f 30/93/16 23/94/16 21/95/16 27/96/16
f 12/97/17 16/98/17 27/99/17 21/100/17
f 36/101/18 32/102/18 35/103/18 38/104/18
f 38/105/19 35/106/19 34/107/19 39/108/19
f 39/109/20 34/110/20 33/111/20 40/112/20
f 40/113/21 33/114/21 31/115/21 37/116/21
f 22/117/22 26/118/22 37/119/22 31/120/22
