# Blender v2.79 (sub 0) OBJ File: 'i_am_malala_book.blend'
# www.blender.org
mtllib i_am_malala_book.mtl
o Cube_Cube.003
v -1.712019 0.661155 2.733203
v -1.712019 0.753445 2.733203
v -1.712019 0.661155 -2.482098
v -1.712019 0.753445 -2.482098
v 1.700167 0.661155 2.733203
v 1.700167 0.753445 2.733203
v 1.700167 0.661155 -2.482098
v 1.700167 0.753445 -2.482098
vt 0.000000 0.000000
vt 1.000000 0.000000
vt 1.000000 1.000000
vt 0.000000 1.000000
vt 0.000000 0.000000
vt 1.000000 0.000000
vt 1.000000 1.000000
vt 0.000000 1.000000
vt 0.000000 0.000000
vt 1.000000 0.000000
vt 1.000000 1.000000
vt 0.000000 1.000000
vt 0.000000 0.000000
vt 1.000000 0.000000
vt 1.000000 1.000000
vt 0.000000 1.000000
vt 1.000000 0.000000
vt 1.000000 1.000000
vt 0.000000 0.000000
vt 0.000000 1.000000
vn -1.0000 0.0000 0.0000
vn 0.0000 0.0000 -1.0000
vn 1.0000 0.0000 0.0000
vn 0.0000 0.0000 1.0000
vn 0.0000 -1.0000 0.0000
vn 0.0000 1.0000 0.0000
usemtl Material.004
s off
f 1/1/1 2/2/1 4/3/1 3/4/1
f 3/5/2 4/6/2 8/7/2 7/8/2
f 7/9/3 8/10/3 6/11/3 5/12/3
f 5/13/4 6/14/4 2/15/4 1/16/4
f 3/5/5 7/17/5 5/18/5 1/16/5
f 8/19/6 4/6/6 2/15/6 6/20/6
o Cylinder
v 1.755132 -0.053134 2.714849
v 1.743850 -0.031748 -2.485294
v 1.775653 -0.045589 2.714836
v 1.764372 -0.024204 -2.485307
v 1.795331 -0.023397 2.714885
v 1.784049 -0.002012 -2.485259
v 1.813408 0.012589 2.714993
v 1.802126 0.033975 -2.485150
v 1.829191 0.060987 2.715158
v 1.817909 0.082372 -2.484985
v 1.842072 0.119936 2.715373
v 1.830790 0.141321 -2.484771
v 1.851556 0.187171 2.715629
v 1.840274 0.208556 -2.484515
v 1.857280 0.260108 2.715916
v 1.845998 0.281493 -2.484227
v 1.859022 0.335944 2.716224
v 1.847740 0.357329 -2.483919
v 1.856717 0.411765 2.716541
v 1.845435 0.433151 -2.483602
v 1.850452 0.484658 2.716854
v 1.839170 0.506043 -2.483289
v 1.840469 0.551821 2.717152
v 1.829187 0.573206 -2.482991
v 1.827151 0.610672 2.717423
v 1.815869 0.632057 -2.482720
v 1.811010 0.658951 2.717657
v 1.799728 0.680336 -2.482486
v 1.792666 0.694801 2.717844
v 1.781384 0.716187 -2.482299
v 1.772825 0.716846 2.717978
v 1.761543 0.738232 -2.482166
v 1.752247 0.724239 2.718053
v 1.740966 0.745624 -2.482090
v 1.731726 0.716694 2.718066
v 1.720444 0.738079 -2.482077
v 1.712048 0.694502 2.718018
v 1.700766 0.715887 -2.482126
v 1.693971 0.658515 2.717909
v 1.682689 0.679901 -2.482234
v 1.678188 0.610118 2.717744
v 1.666907 0.631503 -2.482399
v 1.665308 0.551169 2.717530
v 1.654026 0.572554 -2.482614
v 1.655823 0.483934 2.717274
v 1.644541 0.505319 -2.482870
v 1.650100 0.410997 2.716986
v 1.638818 0.432382 -2.483157
v 1.648357 0.335160 2.716678
v 1.637075 0.356546 -2.483465
v 1.650662 0.259339 2.716361
v 1.639380 0.280724 -2.483782
v 1.656927 0.186446 2.716048
v 1.645645 0.207832 -2.484095
v 1.666910 0.119284 2.715750
v 1.655628 0.140669 -2.484393
v 1.680228 0.060432 2.715479
v 1.668946 0.081818 -2.484664
v 1.696369 0.012154 2.715245
v 1.685087 0.033539 -2.484898
v 1.714713 -0.023697 2.715058
v 1.703431 -0.002312 -2.485085
v 1.734555 -0.045742 2.714925
v 1.723273 -0.024356 -2.485219
vn 0.3451 -0.9386 -0.0046
vn 0.7482 -0.6634 -0.0044
vn 0.8936 -0.4489 -0.0038
vn 0.9507 -0.3100 -0.0033
vn 0.9769 -0.2135 -0.0030
vn 0.9902 -0.1397 -0.0027
vn 0.9969 -0.0782 -0.0025
vn 0.9997 -0.0230 -0.0023
vn 0.9995 0.0304 -0.0020
vn 0.9963 0.0856 -0.0018
vn 0.9891 0.1470 -0.0015
vn 0.9753 0.2207 -0.0012
vn 0.9484 0.3171 -0.0008
vn 0.8902 0.4555 -0.0001
vn 0.7433 0.6690 0.0011
vn 0.3381 0.9411 0.0031
vn -0.3451 0.9386 0.0046
vn -0.7482 0.6634 0.0044
vn -0.8936 0.4489 0.0038
vn -0.9507 0.3100 0.0033
vn -0.9769 0.2135 0.0030
vn -0.9902 0.1397 0.0027
vn -0.9969 0.0782 0.0025
vn -0.9997 0.0230 0.0023
vn -0.9995 -0.0304 0.0020
vn -0.9963 -0.0856 0.0018
vn -0.9891 -0.1470 0.0015
vn -0.9753 -0.2207 0.0012
vn -0.9484 -0.3171 0.0008
vn -0.8902 -0.4555 0.0001
vn -0.0022 0.0041 -1.0000
vn -0.7433 -0.6690 -0.0011
vn -0.3381 -0.9411 -0.0031
vn 0.0022 -0.0041 1.0000
usemtl Material.006
s off
f 9//7 10//7 12//7 11//7
f 11//8 12//8 14//8 13//8
f 13//9 14//9 16//9 15//9
f 15//10 16//10 18//10 17//10
f 17//11 18//11 20//11 19//11
f 19//12 20//12 22//12 21//12
f 21//13 22//13 24//13 23//13
f 23//14 24//14 26//14 25//14
f 25//15 26//15 28//15 27//15
f 27//16 28//16 30//16 29//16
f 29//17 30//17 32//17 31//17
f 31//18 32//18 34//18 33//18
f 33//19 34//19 36//19 35//19
f 35//20 36//20 38//20 37//20
f 37//21 38//21 40//21 39//21
f 39//22 40//22 42//22 41//22
f 41//23 42//23 44//23 43//23
f 43//24 44//24 46//24 45//24
f 45//25 46//25 48//25 47//25
f 47//26 48//26 50//26 49//26
f 49//27 50//27 52//27 51//27
f 51//28 52//28 54//28 53//28
f 53//29 54//29 56//29 55//29
f 55//30 56//30 58//30 57//30
f 57//31 58//31 60//31 59//31
f 59//32 60//32 62//32 61//32
f 61//33 62//33 64//33 63//33
f 63//34 64//34 66//34 65//34
f 65//35 66//35 68//35 67//35
f 67//36 68//36 70//36 69//36
f 12//37 10//37 72//37 70//37 68//37 66//37 64//37 62//37 60//37 58//37 56//37 54//37 52//37 50//37 48//37 46//37 44//37 42//37 40//37 38//37 36//37 34//37 32//37 30//37 28//37 26//37 24//37 22//37 20//37 18//37 16//37 14//37
f 69//38 70//38 72//38 71//38
f 71//39 72//39 10//39 9//39
f 9//40 11//40 13//40 15//40 17//40 19//40 21//40 23//40 25//40 27//40 29//40 31//40 33//40 35//40 37//40 39//40 41//40 43//40 45//40 47//40 49//40 51//40 53//40 55//40 57//40 59//40 61//40 63//40 65//40 67//40 69//40 71//40
o Cube.002
v -1.674790 0.016318 2.554574
v -1.674790 0.659016 2.554574
v -1.674790 0.016318 -2.352215
v -1.674790 0.659016 -2.352215
v 1.625759 0.016318 2.554574
v 1.625759 0.659016 2.554574
v 1.625759 0.016318 -2.352215
v 1.625759 0.659016 -2.352215
vn -1.0000 0.0000 0.0000
vn 0.0000 0.0000 -1.0000
vn 1.0000 0.0000 0.0000
vn 0.0000 0.0000 1.0000
vn 0.0000 -1.0000 0.0000
vn 0.0000 1.0000 0.0000
usemtl None
s off
f 73//41 74//41 76//41 75//41
f 75//42 76//42 80//42 79//42
f 79//43 80//43 78//43 77//43
f 77//44 78//44 74//44 73//44
f 75//45 79//45 77//45 73//45
f 80//46 76//46 74//46 78//46
o Cube.001
v -1.707044 -0.034305 2.719651
v -1.707044 0.031239 2.719651
v -1.707044 -0.034305 -2.498533
v -1.707044 0.031239 -2.498533
v 1.701274 -0.034305 2.719651
v 1.701274 0.031239 2.719651
v 1.701274 -0.034305 -2.498533
v 1.701274 0.031239 -2.498533
vt 0.000000 0.000000
vt 1.000000 0.000000
vt 1.000000 1.000000
vt 0.000000 1.000000
vt 0.000000 0.000000
vt 1.000000 0.000000
vt 1.000000 1.000000
vt 0.000000 1.000000
vt 0.000000 0.000000
vt 1.000000 0.000000
vt 1.000000 1.000000
vt 0.000000 1.000000
vt 0.000000 0.000000
vt 1.000000 0.000000
vt 1.000000 1.000000
vt 0.000000 1.000000
vt 1.000000 0.000000
vt 1.000000 1.000000
vt 0.000000 0.000000
vt 0.000000 1.000000
vn -1.0000 0.0000 0.0000
vn 0.0000 0.0000 -1.0000
vn 1.0000 0.0000 0.0000
vn 0.0000 0.0000 1.0000
vn 0.0000 -1.0000 0.0000
vn 0.0000 1.0000 0.0000
usemtl Material.007
s off
f 81/21/47 82/22/47 84/23/47 83/24/47
f 83/25/48 84/26/48 88/27/48 87/28/48
f 87/29/49 88/30/49 86/31/49 85/32/49
f 85/33/50 86/34/50 82/35/50 81/36/50
f 83/25/51 87/37/51 85/38/51 81/36/51
f 88/39/52 84/26/52 82/35/52 86/40/52
