# Blender v2.79 (sub 0) OBJ File: 'loomia_logo.blend'
# www.blender.org
mtllib loomia_logo.mtl
o Cube.011_Cube.012
v 3.208413 -0.414112 -0.390914
v 3.555512 -0.414112 0.355983
v 3.372089 -0.414112 0.359063
v 3.180451 -0.414112 -0.058979
v 3.208413 0.414112 -0.390914
v 3.555512 0.414112 0.355983
v 3.372089 0.414112 0.359063
v 3.180451 0.414112 -0.058979
vn 0.0000 -1.0000 0.0000
vn 0.0000 1.0000 0.0000
vn 0.9069 0.0000 -0.4214
vn 0.0168 -0.0000 0.9999
vn -0.9090 0.0000 0.4167
vn -0.9965 -0.0000 -0.0839
usemtl Material
s off
f 1//1 2//1 3//1 4//1
f 5//2 8//2 7//2 6//2
f 1//3 5//3 6//3 2//3
f 2//4 6//4 7//4 3//4
f 3//5 7//5 8//5 4//5
f 5//6 1//6 4//6 8//6
o Cube.010_Cube.011
v 3.180015 -0.414112 -0.059308
v 2.994619 -0.414112 0.357280
v 2.803425 -0.414112 0.357280
v 3.158172 -0.414112 -0.390881
v 3.180015 0.414112 -0.059308
v 2.994619 0.414112 0.357281
v 2.803424 0.414112 0.357280
v 3.158172 0.414112 -0.390881
v 3.208311 -0.414112 -0.390881
v 3.208311 0.414112 -0.390881
vn 0.0000 -1.0000 0.0000
vn 0.0000 1.0000 -0.0000
vn 0.9136 -0.0000 0.4066
vn -0.0000 -0.0000 1.0000
vn -0.9036 -0.0000 -0.4284
vn 0.0000 0.0000 -1.0000
vn 0.9964 -0.0000 0.0850
usemtl Material
s off
f 9//7 10//7 11//7 12//7 17//7
f 13//8 18//8 16//8 15//8 14//8
f 9//9 13//9 14//9 10//9
f 10//10 14//10 15//10 11//10
f 11//11 15//11 16//11 12//11
f 18//12 17//12 12//12 16//12
f 13//13 9//13 17//13 18//13
o Cube.009_Cube.010
v 3.381595 -0.414112 0.100747
v 3.381595 -0.414112 0.247308
v 2.991621 -0.414112 0.247308
v 2.991621 -0.414112 0.100747
v 3.381595 0.414112 0.100747
v 3.381594 0.414112 0.247308
v 2.991621 0.414112 0.247308
v 2.991621 0.414112 0.100747
vn 0.0000 -1.0000 -0.0000
vn 0.0000 1.0000 0.0000
vn 1.0000 0.0000 0.0000
vn -0.0000 -0.0000 1.0000
vn -1.0000 -0.0000 -0.0000
vn 0.0000 0.0000 -1.0000
usemtl Material
s off
f 19//14 20//14 21//14 22//14
f 23//15 26//15 25//15 24//15
f 19//16 23//16 24//16 20//16
f 20//17 24//17 25//17 21//17
f 21//18 25//18 26//18 22//18
f 23//19 19//19 22//19 26//19
o Cube.008_Cube.009
v -2.035398 -0.414112 -0.397833
v -2.718966 -0.414112 0.868865
v -3.206363 -0.414112 0.868693
v -2.517164 -0.414112 -0.399615
v -2.035398 0.414112 -0.397832
v -2.718966 0.414112 0.868866
v -3.206363 0.414112 0.868693
v -2.517164 0.414112 -0.399615
vn 0.0000 -1.0000 0.0000
vn 0.0000 1.0000 0.0000
vn 0.8800 -0.0000 0.4749
vn -0.0004 -0.0000 1.0000
vn -0.8787 -0.0000 -0.4775
vn 0.0037 0.0000 -1.0000
usemtl Material
s off
f 27//20 28//20 29//20 30//20
f 31//21 34//21 33//21 32//21
f 27//22 31//22 32//22 28//22
f 28//23 32//23 33//23 29//23
f 29//24 33//24 34//24 30//24
f 31//25 27//25 30//25 34//25
o Cube.007_Cube.008
v -2.363647 -0.414112 -0.939000
v -3.047215 -0.414112 0.327698
v -3.534613 -0.414112 0.327525
v -2.845413 -0.414112 -0.940783
v -2.363647 0.414112 -0.939000
v -3.047215 0.414112 0.327698
v -3.534613 0.414112 0.327525
v -2.845413 0.414112 -0.940783
vn 0.0000 -1.0000 -0.0000
vn 0.0000 1.0000 -0.0000
vn 0.8800 -0.0000 0.4749
vn -0.0004 -0.0000 1.0000
vn -0.8787 0.0000 -0.4775
vn 0.0037 0.0000 -1.0000
usemtl Material
s off
f 35//26 36//26 37//26 38//26
f 39//27 42//27 41//27 40//27
f 35//28 39//28 40//28 36//28
f 36//29 40//29 41//29 37//29
f 37//30 41//30 42//30 38//30
f 39//31 35//31 38//31 42//31
o Cube.006
v 1.447074 -0.365291 0.011285
v 1.447074 0.365291 0.011285
v 1.409576 -0.365291 -0.383582
v 1.409576 0.365291 -0.383582
v 1.627748 -0.365291 0.376298
v 1.627748 0.365291 0.376298
v 1.653760 -0.365291 0.057431
v 1.653760 0.365291 0.057431
v 1.679325 -0.365291 0.376967
v 1.679325 0.365291 0.376967
v 1.346311 -0.365291 -0.384220
v 1.346311 0.365291 -0.384220
vn 0.0101 -0.0000 -0.9999
vn 0.8748 0.0000 -0.4844
vn -0.0130 0.0000 0.9999
vn -0.8962 0.0000 0.4436
vn 0.0000 -1.0000 -0.0000
vn 0.0000 1.0000 -0.0000
vn 0.9968 0.0000 -0.0798
vn -0.9690 -0.0000 0.2469
usemtl Material.003
s off
f 53//32 54//32 46//32 45//32
f 45//33 46//33 50//33 49//33
f 51//34 52//34 48//34 47//34
f 47//35 48//35 44//35 43//35
f 45//36 49//36 51//36 47//36 43//36 53//36
f 50//37 46//37 54//37 44//37 48//37 52//37
f 49//38 50//38 52//38 51//38
f 43//39 44//39 54//39 53//39
o Cube.005
v 1.899421 -0.365291 0.360517
v 1.899421 0.365291 0.360517
v 1.858243 -0.365291 0.022056
v 1.858243 0.365291 0.022056
v 2.077755 -0.365291 0.360517
v 2.077755 0.365291 0.360517
v 1.955545 -0.365291 -0.388929
v 1.955545 0.365291 -0.388929
v 1.891486 -0.365291 -0.388682
v 1.891486 0.365291 -0.388682
vn -0.9927 0.0000 0.1208
vn -0.0039 0.0000 -1.0000
vn 0.9870 0.0000 -0.1609
vn 0.0000 0.0000 1.0000
vn 0.0000 -1.0000 0.0000
vn 0.0000 1.0000 0.0000
vn -0.9967 0.0000 -0.0807
usemtl Material.003
s off
f 55//40 56//40 58//40 57//40
f 63//41 64//41 62//41 61//41
f 61//42 62//42 60//42 59//42
f 59//43 60//43 56//43 55//43
f 57//44 63//44 61//44 59//44 55//44
f 62//45 64//45 58//45 56//45 60//45
f 57//46 58//46 64//46 63//46
o Cube.004_Cube.002
v 1.654465 -0.365291 0.058879
v 1.654465 0.365291 0.058879
v 1.891436 -0.365291 -0.388696
v 1.891436 0.365291 -0.388696
v 1.679421 -0.365291 0.377373
v 1.679421 0.365291 0.377373
v 1.856852 -0.365291 0.023832
v 1.856852 0.365291 0.023832
vn -0.8838 0.0000 -0.4679
vn 0.9965 0.0000 0.0835
vn 0.8938 0.0000 0.4486
vn -0.9969 0.0000 0.0781
vn 0.0000 -1.0000 0.0000
vn 0.0000 1.0000 0.0000
usemtl Material.003
s off
f 65//47 66//47 68//47 67//47
f 67//48 68//48 72//48 71//48
f 71//49 72//49 70//49 69//49
f 69//50 70//50 66//50 65//50
f 67//51 71//51 69//51 65//51
f 72//52 68//52 66//52 70//52
o Cube.003_Cube.004
v 1.226067 -0.365291 0.364065
v 1.226067 0.365291 0.364065
v 1.345834 -0.365291 -0.384261
v 1.345834 0.365291 -0.384261
v 1.399966 -0.365291 0.364065
v 1.399966 0.365291 0.364065
v 1.446620 -0.365291 0.010367
v 1.446620 0.365291 0.010367
vn -0.9874 0.0000 -0.1580
vn 0.9689 0.0000 -0.2475
vn 0.9914 0.0000 0.1308
vn 0.0000 0.0000 1.0000
vn 0.0000 -1.0000 0.0000
vn 0.0000 1.0000 0.0000
usemtl Material.003
s off
f 73//53 74//53 76//53 75//53
f 75//54 76//54 80//54 79//54
f 79//55 80//55 78//55 77//55
f 77//56 78//56 74//56 73//56
f 75//57 79//57 77//57 73//57
f 80//58 76//58 74//58 78//58
o Cylinder.002
v -0.412167 -0.370538 -0.398482
v -0.412167 0.398406 -0.398482
v -0.337161 -0.370538 -0.391095
v -0.337161 0.398406 -0.391095
v -0.265036 -0.370538 -0.369216
v -0.265036 0.398406 -0.369216
v -0.198566 -0.370538 -0.333687
v -0.198566 0.398406 -0.333687
v -0.140305 -0.370538 -0.285873
v -0.140305 0.398406 -0.285873
v -0.092491 -0.370538 -0.227611
v -0.092491 0.398406 -0.227611
v -0.056962 -0.370538 -0.161141
v -0.056962 0.398406 -0.161141
v -0.035083 -0.370538 -0.089017
v -0.035083 0.398406 -0.089017
v -0.027696 -0.370538 -0.014010
v -0.027696 0.398406 -0.014010
v -0.035083 -0.370538 0.060997
v -0.035083 0.398406 0.060997
v -0.056962 -0.370538 0.133121
v -0.056962 0.398406 0.133121
v -0.092491 -0.370538 0.199591
v -0.092491 0.398406 0.199591
v -0.140305 -0.370538 0.257853
v -0.140305 0.398406 0.257853
v -0.198566 -0.370538 0.305667
v -0.198566 0.398406 0.305667
v -0.265037 -0.370538 0.341196
v -0.265037 0.398406 0.341196
v -0.337161 -0.370538 0.363074
v -0.337161 0.398406 0.363074
v -0.412168 -0.370538 0.370462
v -0.412168 0.398406 0.370462
v -0.487174 -0.370538 0.363074
v -0.487174 0.398406 0.363074
v -0.559299 -0.370538 0.341196
v -0.559299 0.398406 0.341196
v -0.625769 -0.370538 0.305666
v -0.625769 0.398406 0.305666
v -0.684030 -0.370538 0.257852
v -0.684030 0.398406 0.257852
v -0.731844 -0.370538 0.199591
v -0.731844 0.398406 0.199591
v -0.767373 -0.370538 0.133121
v -0.767373 0.398406 0.133121
v -0.789252 -0.370538 0.060996
v -0.789252 0.398406 0.060996
v -0.796639 -0.370538 -0.014011
v -0.796639 0.398406 -0.014011
v -0.789252 -0.370538 -0.089017
v -0.789252 0.398406 -0.089017
v -0.767373 -0.370538 -0.161142
v -0.767373 0.398406 -0.161142
v -0.731844 -0.370538 -0.227612
v -0.731844 0.398406 -0.227612
v -0.684030 -0.370538 -0.285873
v -0.684030 0.398406 -0.285873
v -0.625768 -0.370538 -0.333687
v -0.625768 0.398406 -0.333687
v -0.559298 -0.370538 -0.369216
v -0.559298 0.398406 -0.369216
v -0.487174 -0.370538 -0.391095
v -0.487174 0.398406 -0.391095
v -0.236077 0.398406 0.096444
v -0.236077 -0.370538 0.096444
v -0.406827 0.398406 -0.223008
v -0.406827 -0.370538 -0.223008
v -0.446891 0.398406 -0.219062
v -0.446891 -0.370538 -0.219062
v -0.485415 0.398406 -0.207376
v -0.485415 -0.370538 -0.207376
v -0.596555 0.398406 0.060940
v -0.596555 -0.370538 0.060940
v -0.577578 0.398406 0.096444
v -0.577578 -0.370538 0.096444
v -0.608241 0.398406 0.022416
v -0.608241 -0.370538 0.022416
v -0.552039 0.398406 0.127563
v -0.552039 -0.370538 0.127563
v -0.446891 0.398406 0.183766
v -0.446891 -0.370538 0.183766
v -0.406827 0.398406 0.187712
v -0.406827 -0.370538 0.187712
v -0.485415 0.398406 0.172080
v -0.485415 -0.370538 0.172080
v -0.205413 0.398406 -0.057712
v -0.205413 -0.370538 -0.057712
v -0.292735 0.398406 -0.188399
v -0.292735 -0.370538 -0.188399
v -0.201467 0.398406 -0.017648
v -0.201467 -0.370538 -0.017648
v -0.217099 0.398406 -0.096236
v -0.217099 -0.370538 -0.096236
v -0.366764 0.398406 0.183766
v -0.366764 -0.370538 0.183766
v -0.552039 0.398406 -0.162860
v -0.552039 -0.370538 -0.162860
v -0.520919 0.398406 -0.188399
v -0.520919 -0.370538 -0.188399
v -0.577578 0.398406 -0.131740
v -0.577578 -0.370538 -0.131740
v -0.205413 0.398406 0.022416
v -0.205413 -0.370538 0.022416
v -0.292735 0.398406 0.153103
v -0.292735 -0.370538 0.153103
v -0.261616 0.398406 0.127563
v -0.261616 -0.370538 0.127563
v -0.217099 0.398406 0.060940
v -0.217099 -0.370538 0.060940
v -0.612187 0.398406 -0.017648
v -0.612187 -0.370538 -0.017648
v -0.520919 0.398406 0.153102
v -0.520919 -0.370538 0.153102
v -0.608241 0.398406 -0.057712
v -0.608241 -0.370538 -0.057712
v -0.261616 0.398406 -0.162859
v -0.261616 -0.370538 -0.162859
v -0.328239 0.398406 0.172080
v -0.328239 -0.370538 0.172080
v -0.236077 0.398406 -0.131740
v -0.236077 -0.370538 -0.131740
v -0.596555 0.398406 -0.096236
v -0.596555 -0.370538 -0.096236
v -0.328239 0.398406 -0.207376
v -0.328239 -0.370538 -0.207376
v -0.366764 0.398406 -0.219062
v -0.366764 -0.370538 -0.219062
vn 0.0980 0.0000 -0.9952
vn 0.2903 0.0000 -0.9569
vn 0.4714 0.0000 -0.8819
vn 0.6344 0.0000 -0.7730
vn 0.7730 0.0000 -0.6344
vn 0.8819 0.0000 -0.4714
vn 0.9569 0.0000 -0.2903
vn 0.9952 0.0000 -0.0980
vn 0.9952 0.0000 0.0980
vn 0.9569 0.0000 0.2903
vn 0.8819 0.0000 0.4714
vn 0.7730 0.0000 0.6344
vn 0.6344 0.0000 0.7730
vn 0.4714 0.0000 0.8819
vn 0.2903 0.0000 0.9569
vn 0.0980 0.0000 0.9952
vn -0.0980 0.0000 0.9952
vn -0.2903 0.0000 0.9569
vn -0.4714 0.0000 0.8819
vn -0.6344 0.0000 0.7730
vn -0.7730 0.0000 0.6344
vn -0.8819 0.0000 0.4714
vn -0.9569 0.0000 0.2903
vn -0.9952 0.0000 0.0980
vn -0.9952 0.0000 -0.0980
vn -0.9569 0.0000 -0.2903
vn -0.8819 0.0000 -0.4714
vn -0.7730 0.0000 -0.6344
vn -0.6344 0.0000 -0.7730
vn -0.4714 0.0000 -0.8819
vn 0.0000 1.0000 -0.0000
vn -0.2903 0.0000 -0.9569
vn -0.0980 0.0000 -0.9952
vn 0.0000 -1.0000 0.0000
usemtl Material.001
s off
f 81//59 82//59 84//59 83//59
f 83//60 84//60 86//60 85//60
f 85//61 86//61 88//61 87//61
f 87//62 88//62 90//62 89//62
f 89//63 90//63 92//63 91//63
f 91//64 92//64 94//64 93//64
f 93//65 94//65 96//65 95//65
f 95//66 96//66 98//66 97//66
f 97//67 98//67 100//67 99//67
f 99//68 100//68 102//68 101//68
f 101//69 102//69 104//69 103//69
f 103//70 104//70 106//70 105//70
f 105//71 106//71 108//71 107//71
f 107//72 108//72 110//72 109//72
f 109//73 110//73 112//73 111//73
f 111//74 112//74 114//74 113//74
f 113//75 114//75 116//75 115//75
f 115//76 116//76 118//76 117//76
f 117//77 118//77 120//77 119//77
f 119//78 120//78 122//78 121//78
f 121//79 122//79 124//79 123//79
f 123//80 124//80 126//80 125//80
f 125//81 126//81 128//81 127//81
f 127//82 128//82 130//82 129//82
f 129//83 130//83 132//83 131//83
f 131//84 132//84 134//84 133//84
f 133//85 134//85 136//85 135//85
f 135//86 136//86 138//86 137//86
f 137//87 138//87 140//87 139//87
f 139//88 140//88 142//88 141//88
f 84//89 82//89 144//89 142//89 140//89 138//89 136//89 134//89 132//89 130//89 191//89 195//89 203//89 181//89 177//89 179//89 151//89 149//89 147//89 207//89 205//89 169//89 197//89 201//89 173//89 167//89 171//89 98//89 96//89 94//89 92//89 90//89 88//89 86//89
f 141//90 142//90 144//90 143//90
f 143//91 144//91 82//91 81//91
f 81//92 83//92 85//92 87//92 89//92 91//92 93//92 95//92 97//92 172//92 168//92 174//92 202//92 198//92 170//92 206//92 208//92 148//92 150//92 152//92 180//92 178//92 182//92 204//92 196//92 192//92 129//92 131//92 133//92 135//92 137//92 139//92 141//92 143//92
f 184//83 183//83 171//83 172//83
f 188//86 187//86 145//86 146//86
f 146//85 145//85 189//85 190//85
f 196//67 195//67 191//67 192//67
f 168//81 167//81 173//81 174//81
f 172//82 171//82 167//82 168//82
f 202//79 201//79 197//79 198//79
f 148//74 147//74 149//74 150//74
f 162//59 161//59 163//59 164//59
f 182//69 181//69 203//69 204//69
f 164//91 163//91 175//91 176//91
f 150//73 149//73 151//73 152//73
f 198//78 197//78 169//78 170//78
f 194//61 193//61 165//61 166//61
f 98//89 171//89 183//89 189//89 145//89 187//89 185//89 199//89 175//89 163//89 161//89 165//89 193//89 159//89 155//89 153//89 157//89 191//89 130//89 128//89 126//89 124//89 122//89 120//89 118//89 116//89 114//89 112//89 110//89 108//89 106//89 104//89 102//89 100//89
f 170//77 169//77 205//77 206//77
f 186//87 185//87 187//87 188//87
f 180//71 179//71 177//71 178//71
f 204//68 203//68 195//68 196//68
f 200//88 199//88 185//88 186//88
f 160//62 159//62 193//62 194//62
f 154//64 153//64 155//64 156//64
f 208//75 207//75 147//75 148//75
f 174//80 173//80 201//80 202//80
f 192//66 191//66 157//66 158//66
f 190//84 189//84 183//84 184//84
f 166//60 165//60 161//60 162//60
f 152//72 151//72 179//72 180//72
f 206//76 205//76 207//76 208//76
f 176//90 175//90 199//90 200//90
f 158//65 157//65 153//65 154//65
f 178//70 177//70 181//70 182//70
f 129//92 192//92 158//92 154//92 156//92 160//92 194//92 166//92 162//92 164//92 176//92 200//92 186//92 188//92 146//92 190//92 184//92 172//92 97//92 99//92 101//92 103//92 105//92 107//92 109//92 111//92 113//92 115//92 117//92 119//92 121//92 123//92 125//92 127//92
f 156//63 155//63 159//63 160//63
o Cylinder
v 0.593631 -0.362261 -0.393244
v 0.593631 0.406683 -0.393244
v 0.668638 -0.362261 -0.385856
v 0.668638 0.406683 -0.385856
v 0.740762 -0.362261 -0.363977
v 0.740762 0.406683 -0.363977
v 0.807232 -0.362261 -0.328448
v 0.807232 0.406683 -0.328448
v 0.865494 -0.362261 -0.280634
v 0.865494 0.406683 -0.280634
v 0.913308 -0.362261 -0.222373
v 0.913308 0.406683 -0.222373
v 0.948837 -0.362261 -0.155903
v 0.948837 0.406683 -0.155903
v 0.970716 -0.362261 -0.083778
v 0.970716 0.406683 -0.083778
v 0.978103 -0.362261 -0.008772
v 0.978103 0.406683 -0.008772
v 0.970716 -0.362261 0.066235
v 0.970716 0.406683 0.066235
v 0.948837 -0.362261 0.138359
v 0.948837 0.406683 0.138359
v 0.913308 -0.362261 0.204830
v 0.913308 0.406683 0.204830
v 0.865494 -0.362261 0.263091
v 0.865494 0.406683 0.263091
v 0.807232 -0.362261 0.310905
v 0.807232 0.406683 0.310905
v 0.740762 -0.362261 0.346434
v 0.740762 0.406683 0.346434
v 0.668638 -0.362261 0.368313
v 0.668638 0.406683 0.368313
v 0.593631 -0.362261 0.375700
v 0.593631 0.406683 0.375700
v 0.518624 -0.362261 0.368313
v 0.518624 0.406683 0.368313
v 0.446500 -0.362261 0.346434
v 0.446500 0.406683 0.346434
v 0.380030 -0.362261 0.310905
v 0.380030 0.406683 0.310905
v 0.321768 -0.362261 0.263091
v 0.321768 0.406683 0.263091
v 0.273954 -0.362261 0.204829
v 0.273954 0.406683 0.204829
v 0.238425 -0.362261 0.138359
v 0.238425 0.406683 0.138359
v 0.216547 -0.362261 0.066235
v 0.216547 0.406683 0.066235
v 0.209159 -0.362261 -0.008772
v 0.209159 0.406683 -0.008772
v 0.216547 -0.362261 -0.083779
v 0.216547 0.406683 -0.083779
v 0.238426 -0.362261 -0.155903
v 0.238426 0.406683 -0.155903
v 0.273955 -0.362261 -0.222373
v 0.273955 0.406683 -0.222373
v 0.321769 -0.362261 -0.280635
v 0.321769 0.406683 -0.280635
v 0.380030 -0.362261 -0.328449
v 0.380030 0.406683 -0.328449
v 0.446501 -0.362261 -0.363978
v 0.446501 0.406683 -0.363978
v 0.518625 -0.362261 -0.385856
v 0.518625 0.406683 -0.385856
v 0.769722 0.406683 0.101682
v 0.769722 -0.362261 0.101682
v 0.598971 0.406683 -0.217770
v 0.598971 -0.362261 -0.217770
v 0.558908 0.406683 -0.213824
v 0.558908 -0.362261 -0.213824
v 0.520384 0.406683 -0.202138
v 0.520384 -0.362261 -0.202138
v 0.409244 0.406683 0.066178
v 0.409244 -0.362261 0.066178
v 0.428221 0.406683 0.101682
v 0.428221 -0.362261 0.101682
v 0.397557 0.406683 0.027654
v 0.397557 -0.362261 0.027654
v 0.453760 0.406683 0.132802
v 0.453760 -0.362261 0.132802
v 0.558908 0.406683 0.189005
v 0.558908 -0.362261 0.189005
v 0.598971 0.406683 0.192950
v 0.598971 -0.362261 0.192950
v 0.520384 0.406683 0.177318
v 0.520384 -0.362261 0.177318
v 0.800386 0.406683 -0.052473
v 0.800386 -0.362261 -0.052473
v 0.713063 0.406683 -0.183160
v 0.713063 -0.362261 -0.183160
v 0.804331 0.406683 -0.012410
v 0.804331 -0.362261 -0.012410
v 0.788699 0.406683 -0.090997
v 0.788699 -0.362261 -0.090997
v 0.639035 0.406683 0.189005
v 0.639035 -0.362261 0.189005
v 0.453760 0.406683 -0.157621
v 0.453760 -0.362261 -0.157621
v 0.484880 0.406683 -0.183160
v 0.484880 -0.362261 -0.183160
v 0.428221 0.406683 -0.126502
v 0.428221 -0.362261 -0.126502
v 0.800386 0.406683 0.027654
v 0.800386 -0.362261 0.027654
v 0.713063 0.406683 0.158341
v 0.713063 -0.362261 0.158341
v 0.744183 0.406683 0.132802
v 0.744183 -0.362261 0.132802
v 0.788699 0.406683 0.066178
v 0.788699 -0.362261 0.066178
v 0.393611 0.406683 -0.012410
v 0.393611 -0.362261 -0.012410
v 0.484879 0.406683 0.158341
v 0.484879 -0.362261 0.158341
v 0.397557 0.406683 -0.052473
v 0.397557 -0.362261 -0.052473
v 0.744183 0.406683 -0.157621
v 0.744183 -0.362261 -0.157621
v 0.677559 0.406683 0.177318
v 0.677559 -0.362261 0.177318
v 0.769722 0.406683 -0.126501
v 0.769722 -0.362261 -0.126501
v 0.409244 0.406683 -0.090998
v 0.409244 -0.362261 -0.090998
v 0.677559 0.406683 -0.202137
v 0.677559 -0.362261 -0.202137
v 0.639035 0.406683 -0.213824
v 0.639035 -0.362261 -0.213824
vn 0.0980 0.0000 -0.9952
vn 0.2903 0.0000 -0.9569
vn 0.4714 0.0000 -0.8819
vn 0.6344 0.0000 -0.7730
vn 0.7730 0.0000 -0.6344
vn 0.8819 0.0000 -0.4714
vn 0.9569 0.0000 -0.2903
vn 0.9952 0.0000 -0.0980
vn 0.9952 0.0000 0.0980
vn 0.9569 0.0000 0.2903
vn 0.8819 0.0000 0.4714
vn 0.7730 0.0000 0.6344
vn 0.6344 0.0000 0.7730
vn 0.4714 0.0000 0.8819
vn 0.2903 0.0000 0.9569
vn 0.0980 0.0000 0.9952
vn -0.0980 0.0000 0.9952
vn -0.2903 0.0000 0.9569
vn -0.4714 0.0000 0.8819
vn -0.6344 0.0000 0.7730
vn -0.7730 0.0000 0.6344
vn -0.8819 0.0000 0.4714
vn -0.9569 0.0000 0.2903
vn -0.9952 0.0000 0.0980
vn -0.9952 0.0000 -0.0980
vn -0.9569 0.0000 -0.2903
vn -0.8819 0.0000 -0.4714
vn -0.7730 0.0000 -0.6344
vn -0.6344 0.0000 -0.7730
vn -0.4714 0.0000 -0.8819
vn 0.0000 1.0000 -0.0000
vn -0.2903 0.0000 -0.9569
vn -0.0980 0.0000 -0.9952
vn 0.0000 -1.0000 -0.0000
usemtl Material.002
s off
f 209//93 210//93 212//93 211//93
f 211//94 212//94 214//94 213//94
f 213//95 214//95 216//95 215//95
f 215//96 216//96 218//96 217//96
f 217//97 218//97 220//97 219//97
f 219//98 220//98 222//98 221//98
f 221//99 222//99 224//99 223//99
f 223//100 224//100 226//100 225//100
f 225//101 226//101 228//101 227//101
f 227//102 228//102 230//102 229//102
f 229//103 230//103 232//103 231//103
f 231//104 232//104 234//104 233//104
f 233//105 234//105 236//105 235//105
f 235//106 236//106 238//106 237//106
f 237//107 238//107 240//107 239//107
f 239//108 240//108 242//108 241//108
f 241//109 242//109 244//109 243//109
f 243//110 244//110 246//110 245//110
f 245//111 246//111 248//111 247//111
f 247//112 248//112 250//112 249//112
f 249//113 250//113 252//113 251//113
f 251//114 252//114 254//114 253//114
f 253//115 254//115 256//115 255//115
f 255//116 256//116 258//116 257//116
f 257//117 258//117 260//117 259//117
f 259//118 260//118 262//118 261//118
f 261//119 262//119 264//119 263//119
f 263//120 264//120 266//120 265//120
f 265//121 266//121 268//121 267//121
f 267//122 268//122 270//122 269//122
f 212//123 210//123 272//123 270//123 268//123 266//123 264//123 262//123 260//123 258//123 319//123 323//123 331//123 309//123 305//123 307//123 279//123 277//123 275//123 335//123 333//123 297//123 325//123 329//123 301//123 295//123 299//123 226//123 224//123 222//123 220//123 218//123 216//123 214//123
f 269//124 270//124 272//124 271//124
f 271//125 272//125 210//125 209//125
f 209//126 211//126 213//126 215//126 217//126 219//126 221//126 223//126 225//126 300//126 296//126 302//126 330//126 326//126 298//126 334//126 336//126 276//126 278//126 280//126 308//126 306//126 310//126 332//126 324//126 320//126 257//126 259//126 261//126 263//126 265//126 267//126 269//126 271//126
f 312//117 311//117 299//117 300//117
f 316//120 315//120 273//120 274//120
f 274//119 273//119 317//119 318//119
f 324//101 323//101 319//101 320//101
f 296//115 295//115 301//115 302//115
f 300//116 299//116 295//116 296//116
f 330//113 329//113 325//113 326//113
f 276//108 275//108 277//108 278//108
f 290//93 289//93 291//93 292//93
f 310//103 309//103 331//103 332//103
f 292//125 291//125 303//125 304//125
f 278//107 277//107 279//107 280//107
f 326//112 325//112 297//112 298//112
f 322//95 321//95 293//95 294//95
f 226//123 299//123 311//123 317//123 273//123 315//123 313//123 327//123 303//123 291//123 289//123 293//123 321//123 287//123 283//123 281//123 285//123 319//123 258//123 256//123 254//123 252//123 250//123 248//123 246//123 244//123 242//123 240//123 238//123 236//123 234//123 232//123 230//123 228//123
f 298//111 297//111 333//111 334//111
f 314//121 313//121 315//121 316//121
f 308//105 307//105 305//105 306//105
f 332//102 331//102 323//102 324//102
f 328//122 327//122 313//122 314//122
f 288//96 287//96 321//96 322//96
f 282//98 281//98 283//98 284//98
f 336//109 335//109 275//109 276//109
f 302//114 301//114 329//114 330//114
f 320//100 319//100 285//100 286//100
f 318//118 317//118 311//118 312//118
f 294//94 293//94 289//94 290//94
f 280//106 279//106 307//106 308//106
f 334//110 333//110 335//110 336//110
f 304//124 303//124 327//124 328//124
f 286//99 285//99 281//99 282//99
f 306//104 305//104 309//104 310//104
f 257//126 320//126 286//126 282//126 284//126 288//126 322//126 294//126 290//126 292//126 304//126 328//126 314//126 316//126 274//126 318//126 312//126 300//126 225//126 227//126 229//126 231//126 233//126 235//126 237//126 239//126 241//126 243//126 245//126 247//126 249//126 251//126 253//126 255//126
f 284//97 283//97 287//97 288//97
o Cube.002_Cube.003
v 2.584610 -0.414112 -0.381967
v 2.584610 -0.414112 0.360846
v 2.416589 -0.414112 0.360846
v 2.416589 -0.414112 -0.381968
v 2.584610 0.414112 -0.381967
v 2.584610 0.414112 0.360846
v 2.416589 0.414112 0.360846
v 2.416589 0.414112 -0.381967
vn 0.0000 -1.0000 0.0000
vn 0.0000 1.0000 0.0000
vn 1.0000 -0.0000 0.0000
vn -0.0000 -0.0000 1.0000
vn -1.0000 0.0000 0.0000
vn 0.0000 0.0000 -1.0000
usemtl Material
s off
f 337//127 338//127 339//127 340//127
f 341//128 344//128 343//128 342//128
f 337//129 341//129 342//129 338//129
f 338//130 342//130 343//130 339//130
f 339//131 343//131 344//131 340//131
f 341//132 337//132 340//132 344//132
o Cube.001
v -1.475602 -0.412467 0.357956
v -1.475602 0.412467 0.357956
v -1.475602 -0.412467 0.196003
v -1.475602 0.412467 0.196003
v -1.029150 -0.412467 0.357956
v -1.029150 0.412467 0.357956
v -1.029150 -0.412467 0.196003
v -1.029150 0.412467 0.196003
vn -1.0000 0.0000 0.0000
vn 0.0000 0.0000 -1.0000
vn 1.0000 0.0000 0.0000
vn 0.0000 0.0000 1.0000
vn 0.0000 -1.0000 0.0000
vn 0.0000 1.0000 0.0000
usemtl Material.004
s off
f 345//133 346//133 348//133 347//133
f 347//134 348//134 352//134 351//134
f 351//135 352//135 350//135 349//135
f 349//136 350//136 346//136 345//136
f 347//137 351//137 349//137 345//137
f 352//138 348//138 346//138 350//138
o Cube
v -1.310026 -0.414112 -0.389511
v -1.310026 -0.414112 0.353302
v -1.478047 -0.414112 0.353302
v -1.478046 -0.414112 -0.389511
v -1.310026 0.414112 -0.389511
v -1.310026 0.414112 0.353302
v -1.478047 0.414112 0.353302
v -1.478047 0.414112 -0.389511
vn 0.0000 -1.0000 -0.0000
vn 0.0000 1.0000 0.0000
vn 1.0000 0.0000 0.0000
vn -0.0000 -0.0000 1.0000
vn -1.0000 -0.0000 -0.0000
vn 0.0000 0.0000 -1.0000
usemtl Material
s off
f 353//139 354//139 355//139 356//139
f 357//140 360//140 359//140 358//140
f 353//141 357//141 358//141 354//141
f 354//142 358//142 359//142 355//142
f 355//143 359//143 360//143 356//143
f 357//144 353//144 356//144 360//144
