# Blender v2.79 (sub 0) OBJ File: 'youtube_logo.blend'
# www.blender.org
mtllib youtube_logo.mtl
o Cube
v -1.150144 0.614676 -1.178409
v -0.812555 0.614676 -1.667996
v -1.133621 0.614676 -1.329700
v -1.085670 0.614676 -1.466181
v -1.010985 0.614676 -1.574493
v -0.916876 0.614676 -1.644034
v -0.812556 1.003380 -1.667995
v -1.150144 1.003380 -1.178408
v -0.916876 1.003380 -1.644033
v -1.010985 1.003380 -1.574493
v -1.085671 1.003380 -1.466180
v -1.133621 1.003380 -1.329699
v 0.778020 0.614676 -1.667996
v 1.150144 0.614676 -1.128323
v 0.893013 0.614676 -1.641582
v 0.996749 0.614676 -1.564927
v 1.079075 0.614676 -1.445535
v 1.131931 0.614676 -1.295091
v 1.150144 1.003380 -1.128322
v 0.778021 1.003380 -1.667995
v 1.131932 1.003380 -1.295090
v 1.079075 1.003380 -1.445534
v 0.996750 1.003380 -1.564927
v 0.893013 1.003380 -1.641582
v 1.150144 0.614676 1.131685
v 0.780339 0.614676 1.667996
v 1.132045 0.614676 1.297414
v 1.079518 0.614676 1.446920
v 0.997705 0.614676 1.565569
v 0.894615 0.614676 1.641747
v 0.780338 1.003380 1.667996
v 1.150144 1.003380 1.131686
v 0.894614 1.003380 1.641747
v 0.997704 1.003380 1.565570
v 1.079517 1.003380 1.446921
v 1.132044 1.003380 1.297415
v -0.758169 0.614676 1.667995
v -1.150144 0.614676 1.099533
v -0.879296 0.614676 1.640173
v -0.988566 0.614676 1.559429
v -1.075284 0.614676 1.433667
v -1.130960 0.614676 1.275197
v -1.150144 1.003380 1.099533
v -0.758169 1.003380 1.667995
v -1.130960 1.003380 1.275197
v -1.075284 1.003380 1.433666
v -0.988566 1.003380 1.559428
v -0.879296 1.003380 1.640173
vt 0.578819 0.582325
vt 0.578379 0.585103
vt 0.577102 0.587609
vt 0.575113 0.589598
vt 0.572607 0.590875
vt 0.569829 0.591315
vt 0.532181 0.591315
vt 0.529420 0.590878
vt 0.526930 0.589609
vt 0.524953 0.587633
vt 0.523684 0.585142
vt 0.523247 0.582381
vt 0.523247 0.545213
vt 0.523711 0.542287
vt 0.525056 0.539647
vt 0.527151 0.537552
vt 0.529790 0.536207
vt 0.532716 0.535744
vt 0.570663 0.535743
vt 0.573183 0.536143
vt 0.575457 0.537301
vt 0.577261 0.539105
vt 0.578420 0.541379
vt 0.578819 0.543899
vt 0.405676 0.549515
vt 0.405676 0.456414
vt 0.470052 0.456414
vt 0.470052 0.549515
vt 0.461595 0.437419
vt 0.461595 0.580368
vt 0.404825 0.580368
vt 0.404825 0.437419
vt 0.448809 0.408666
vt 0.448809 0.572511
vt 0.441286 0.572511
vt 0.441286 0.408666
vt 0.445437 0.450254
vt 0.445437 0.587393
vt 0.439140 0.587393
vt 0.439140 0.450254
vt 0.436846 0.432776
vt 0.436846 0.529577
vt 0.434240 0.529577
vt 0.434240 0.432776
vt 0.409628 0.420880
vt 0.409628 0.560296
vt 0.403226 0.560296
vt 0.403226 0.420880
vt 0.422923 0.431718
vt 0.422923 0.549458
vt 0.417517 0.549458
vt 0.417517 0.431718
vt 0.427675 0.439733
vt 0.427675 0.560267
vt 0.424098 0.560267
vt 0.424098 0.439733
vt 0.420860 0.420070
vt 0.420860 0.570519
vt 0.413245 0.570519
vt 0.413245 0.420070
vt 0.422810 0.417727
vt 0.422810 0.582273
vt 0.417928 0.582273
vt 0.417928 0.417727
vt 0.439953 0.407235
vt 0.439952 0.611589
vt 0.433889 0.611589
vt 0.433889 0.407235
vt 0.407220 0.412349
vt 0.407220 0.568828
vt 0.399300 0.568828
vt 0.399300 0.412349
vt 0.451393 0.459515
vt 0.451393 0.531073
vt 0.402531 0.531073
vt 0.402531 0.459515
vt 0.429586 0.402788
vt 0.429587 0.578388
vt 0.420754 0.578388
vt 0.420754 0.402788
vt 0.437770 0.399917
vt 0.437770 0.571848
vt 0.429122 0.571848
vt 0.429122 0.399917
vt 0.435408 0.406147
vt 0.435408 0.593853
vt 0.425967 0.593853
vt 0.425967 0.406147
vt 0.417729 0.400320
vt 0.417730 0.543209
vt 0.410542 0.543209
vt 0.410542 0.400320
vt 0.440583 0.417662
vt 0.440583 0.591750
vt 0.431827 0.591750
vt 0.431827 0.417662
vt 0.444382 0.630606
vt 0.432248 0.630836
vt 0.423356 0.629699
vt 0.411682 0.629056
vt 0.401477 0.616952
vt 0.392025 0.592218
vt 0.392832 0.416807
vt 0.396499 0.392468
vt 0.402001 0.383728
vt 0.407894 0.378619
vt 0.413871 0.373164
vt 0.437345 0.370134
vt 0.579812 0.372277
vt 0.591030 0.376928
vt 0.601774 0.385499
vt 0.604922 0.392560
vt 0.605831 0.399427
vt 0.610013 0.410735
vt 0.608387 0.588601
vt 0.607656 0.602264
vt 0.604158 0.610773
vt 0.598656 0.616595
vt 0.594934 0.622459
vt 0.581834 0.627905
vt 0.424582 0.421721
vt 0.424582 0.550044
vt 0.417741 0.550044
vt 0.417741 0.421721
vt 0.429955 0.424421
vt 0.429955 0.547344
vt 0.423402 0.547344
vt 0.423402 0.424421
vt 0.436573 0.408488
vt 0.436573 0.572689
vt 0.427819 0.572689
vt 0.427819 0.408488
vt 0.452800 0.428690
vt 0.452800 0.580722
vt 0.444695 0.580722
vt 0.444695 0.428690
vt 0.430785 0.437090
vt 0.430785 0.591145
vt 0.422572 0.591145
vt 0.422572 0.437090
vt 0.456476 0.440931
vt 0.456476 0.559069
vt 0.410157 0.559069
vt 0.410157 0.440931
vn 0.0000 -1.0000 0.0000
vn 0.0000 0.0000 -1.0000
vn 1.0000 0.0000 0.0000
vn -0.9941 -0.0000 -0.1086
vn -0.9435 -0.0000 -0.3315
vn -0.8233 0.0000 -0.5677
vn -0.5943 0.0000 -0.8042
vn -0.2239 0.0000 -0.9746
vn 0.2239 0.0000 -0.9746
vn 0.5943 0.0000 -0.8042
vn 0.8233 -0.0000 -0.5677
vn 0.9435 -0.0000 -0.3315
vn 0.9941 -0.0000 -0.1086
vn -1.0000 -0.0000 -0.0000
vn 0.9941 0.0000 0.1086
vn 0.9435 0.0000 0.3315
vn 0.8233 0.0000 0.5677
vn 0.5943 -0.0000 0.8042
vn 0.2239 -0.0000 0.9746
vn 0.0000 1.0000 0.0000
vn -0.2239 0.0000 0.9746
vn -0.5943 0.0000 0.8042
vn -0.8233 -0.0000 0.5677
vn -0.9435 -0.0000 0.3315
vn -0.9941 -0.0000 0.1086
vn -0.0000 -0.0000 1.0000
usemtl Material
s off
f 13/1/1 15/2/1 16/3/1 17/4/1 18/5/1 14/6/1 25/7/1 27/8/1 28/9/1 29/10/1 30/11/1 26/12/1 37/13/1 39/14/1 40/15/1 41/16/1 42/17/1 38/18/1 1/19/1 3/20/1 4/21/1 5/22/1 6/23/1 2/24/1
f 20/25/2 13/26/2 2/27/2 7/28/2
f 14/29/3 19/30/3 32/31/3 25/32/3
f 1/33/4 8/34/4 12/35/4 3/36/4
f 3/37/5 12/38/5 11/39/5 4/40/5
f 4/41/6 11/42/6 10/43/6 5/44/6
f 5/45/7 10/46/7 9/47/7 6/48/7
f 6/49/8 9/50/8 7/51/8 2/52/8
f 13/53/9 20/54/9 24/55/9 15/56/9
f 15/57/10 24/58/10 23/59/10 16/60/10
f 16/61/11 23/62/11 22/63/11 17/64/11
f 17/65/12 22/66/12 21/67/12 18/68/12
f 18/69/13 21/70/13 19/71/13 14/72/13
f 38/73/14 43/74/14 8/75/14 1/76/14
f 25/77/15 32/78/15 36/79/15 27/80/15
f 27/81/16 36/82/16 35/83/16 28/84/16
f 28/85/17 35/86/17 34/87/17 29/88/17
f 29/89/18 34/90/18 33/91/18 30/92/18
f 30/93/19 33/94/19 31/95/19 26/96/19
f 19/97/20 21/98/20 22/99/20 23/100/20 24/101/20 20/102/20 7/103/20 9/104/20 10/105/20 11/106/20 12/107/20 8/108/20 43/109/20 45/110/20 46/111/20 47/112/20 48/113/20 44/114/20 31/115/20 33/116/20 34/117/20 35/118/20 36/119/20 32/120/20
f 37/121/21 44/122/21 48/123/21 39/124/21
f 39/125/22 48/126/22 47/127/22 40/128/22
f 40/129/23 47/130/23 46/131/23 41/132/23
f 41/133/24 46/134/24 45/135/24 42/136/24
f 42/137/25 45/138/25 43/139/25 38/140/25
f 26/141/26 31/142/26 44/143/26 37/144/26
